<?xml version="1.0" standalone="no"?><!DOCTYPE svg PUBLIC "-//W3C//DTD SVG 1.1//EN" "http://www.w3.org/Graphics/SVG/1.1/DTD/svg11.dtd"><svg t="1573138783235" class="icon" viewBox="0 0 1024 1024" version="1.1" xmlns="http://www.w3.org/2000/svg" p-id="43864" xmlns:xlink="http://www.w3.org/1999/xlink" width="64" height="64"><defs><style type="text/css"></style></defs><path d="M992 256.16V960a64 64 0 0 1-64 64H96a64 64 0 0 1-64-64V64a64 64 0 0 1 64-64h639.84L992 256.16z m-204.64 352c-28.704-19.776-77.056-30.56-143.68-32.128-37.024-44.608-72.544-96.96-97.664-143.744 17.92-31.104 28.992-54.496 32.992-69.536 18.72-70.72 4.032-122.4-16-147.2C550.656 200.32 534.656 192 517.696 192c-19.904 0-66.784 11.712-71.04 120.608-1.216 30.72 9.6 70.208 32 117.504a1815.744 1815.744 0 0 1-124.064 176.8c-36.704 7.584-72.096 16.32-102.4 25.184-87.36 25.728-94.848 65.056-91.648 86.272C165.12 747.552 195.04 768 233.216 768c16.704 0 33.92-4 49.696-11.712 26.176-12.704 61.44-45.504 104.864-97.6 80-15.392 162.784-24.64 227.584-25.696 16.96 19.168 41.792 45.28 64.768 61.728 36.864 26.464 68.8 39.84 95.072 39.84 26.336 0 46.496-13.216 53.984-35.36 10.016-29.568-7.232-67.104-41.824-91.008z m-15.488 69.056c-7.488-1.152-25.248-6.144-55.968-28.16a169.312 169.312 0 0 1-13.472-10.784c30.048 5.024 44.192 12.352 50.24 16.448 12.384 8.64 17.344 17.6 19.2 22.496z m-203.936-99.52a1504 1504 0 0 0-124.48 13.504l-3.072 0.384 1.472-1.92a1913.824 1913.824 0 0 0 67.968-98.336l0.96-1.568 0.64 1.056c16.832 28.16 36.608 57.312 57.28 84.832l1.504 1.92-2.272 0.16z m-46.624-229.12a96.928 96.928 0 0 1-6.016 15.328c-8.128-24.448-9.6-40-9.216-48.96 1.344-34.496 7.488-52.864 11.904-61.888 6.816 11.328 16.96 43.744 3.328 95.552z m-287.936 362.24c-4.8 0-8.416-0.8-10.976-1.696 5.12-4.768 17.632-13.504 47.296-22.24 5.472-1.696 11.2-3.2 17.088-4.896-17.216 15.936-26.976 21.472-30.432 23.136a52.608 52.608 0 0 1-22.976 5.664z" fill="#CE2326" p-id="43865"></path></svg>