<?xml version="1.0" standalone="no"?><!DOCTYPE svg PUBLIC "-//W3C//DTD SVG 1.1//EN" "http://www.w3.org/Graphics/SVG/1.1/DTD/svg11.dtd"><svg t="1573136406488" class="icon" viewBox="0 0 1170 1024" version="1.1" xmlns="http://www.w3.org/2000/svg" p-id="4878" xmlns:xlink="http://www.w3.org/1999/xlink" width="73.125" height="64"><defs><style type="text/css"></style></defs><path d="M833.828571 1024H336.457143V0h497.371428v1024z m58.514286 0V0h232.96c25.014857 0.219429 45.129143 19.309714 44.982857 42.642286v938.715428c0 23.552-20.187429 42.642286-44.982857 42.642286H892.342857z m-614.4 0H44.982857C20.187429 1024 0 1004.836571 0 981.357714V42.642286C0 19.090286 20.187429 0 44.982857 0H277.942857v1024z m-73.142857-819.2h-0.073143V73.142857H73.142857v131.657143h131.657143z m0 248.685714h-0.073143V321.828571H73.142857v131.657143h131.657143zM73.142857 702.171429h131.584V570.514286H73.142857v131.657143zM73.142857 950.857143h131.584v-131.657143H73.142857V950.857143z m657.115429-412.379429A29.769143 29.769143 0 0 0 746.057143 512a29.769143 29.769143 0 0 0-15.798857-26.550857L480.548571 332.288a27.867429 27.867429 0 0 0-27.940571 1.243429 29.988571 29.988571 0 0 0-13.677714 25.307428v306.322286c0 10.24 5.12 19.821714 13.604571 25.234286a27.721143 27.721143 0 0 0 28.086857 1.243428l249.709715-153.161143zM1097.142857 204.8V73.142857h-131.657143v131.657143H1097.142857z m0 248.685714V321.828571h-131.657143v131.657143H1097.142857z m0 248.685715V570.514286h-131.657143v131.657143H1097.142857z m0 248.685714v-131.657143h-131.657143V950.857143H1097.142857z" fill="#334B80" p-id="4879"></path></svg>